<mxfile host="app.diagrams.net" modified="2023-11-17T14:11:08.451Z" agent="Mozilla/5.0 (Macintosh; Intel Mac OS X 10_15_7) AppleWebKit/537.36 (KHTML, like Gecko) Chrome/119.0.0.0 Safari/537.36" etag="5tEo6GXjfXWmEh-_YnMJ" version="22.1.3" type="github">
  <diagram id="C5RBs43oDa-KdzZeNtuy" name="Page-1">
    <mxGraphModel dx="954" dy="642" grid="1" gridSize="10" guides="1" tooltips="1" connect="1" arrows="1" fold="1" page="1" pageScale="1" pageWidth="827" pageHeight="1169" math="0" shadow="0">
      <root>
        <mxCell id="WIyWlLk6GJQsqaUBKTNV-0" />
        <mxCell id="WIyWlLk6GJQsqaUBKTNV-1" parent="WIyWlLk6GJQsqaUBKTNV-0" />
        <mxCell id="JYMYLlMyIVEoMuBTw07z-2" value="" style="edgeStyle=orthogonalEdgeStyle;rounded=0;orthogonalLoop=1;jettySize=auto;html=1;" edge="1" parent="WIyWlLk6GJQsqaUBKTNV-1" source="JYMYLlMyIVEoMuBTw07z-0" target="JYMYLlMyIVEoMuBTw07z-1">
          <mxGeometry relative="1" as="geometry" />
        </mxCell>
        <mxCell id="JYMYLlMyIVEoMuBTw07z-0" value="Start" style="ellipse;whiteSpace=wrap;html=1;" vertex="1" parent="WIyWlLk6GJQsqaUBKTNV-1">
          <mxGeometry x="80" y="40" width="120" height="80" as="geometry" />
        </mxCell>
        <mxCell id="JYMYLlMyIVEoMuBTw07z-4" value="" style="edgeStyle=orthogonalEdgeStyle;rounded=0;orthogonalLoop=1;jettySize=auto;html=1;" edge="1" parent="WIyWlLk6GJQsqaUBKTNV-1" source="JYMYLlMyIVEoMuBTw07z-1" target="JYMYLlMyIVEoMuBTw07z-3">
          <mxGeometry relative="1" as="geometry" />
        </mxCell>
        <mxCell id="JYMYLlMyIVEoMuBTw07z-1" value="Input &quot;makan&quot;" style="shape=parallelogram;perimeter=parallelogramPerimeter;whiteSpace=wrap;html=1;fixedSize=1;" vertex="1" parent="WIyWlLk6GJQsqaUBKTNV-1">
          <mxGeometry x="80" y="170" width="120" height="60" as="geometry" />
        </mxCell>
        <mxCell id="JYMYLlMyIVEoMuBTw07z-6" value="" style="edgeStyle=orthogonalEdgeStyle;rounded=0;orthogonalLoop=1;jettySize=auto;html=1;" edge="1" parent="WIyWlLk6GJQsqaUBKTNV-1" source="JYMYLlMyIVEoMuBTw07z-3">
          <mxGeometry relative="1" as="geometry">
            <mxPoint x="140" y="390" as="targetPoint" />
          </mxGeometry>
        </mxCell>
        <mxCell id="JYMYLlMyIVEoMuBTw07z-3" value="vocal = [&#39;a&#39;, &#39;i&#39;, &#39;u&#39;, &#39;e&#39;, &#39;o&#39;];&lt;br&gt;result = &quot; &quot;" style="whiteSpace=wrap;html=1;" vertex="1" parent="WIyWlLk6GJQsqaUBKTNV-1">
          <mxGeometry x="60" y="280" width="160" height="60" as="geometry" />
        </mxCell>
        <mxCell id="JYMYLlMyIVEoMuBTw07z-10" value="" style="edgeStyle=orthogonalEdgeStyle;rounded=0;orthogonalLoop=1;jettySize=auto;html=1;exitX=0.5;exitY=1;exitDx=0;exitDy=0;" edge="1" parent="WIyWlLk6GJQsqaUBKTNV-1" source="JYMYLlMyIVEoMuBTw07z-22" target="JYMYLlMyIVEoMuBTw07z-9">
          <mxGeometry relative="1" as="geometry">
            <mxPoint x="140" y="680" as="sourcePoint" />
          </mxGeometry>
        </mxCell>
        <mxCell id="JYMYLlMyIVEoMuBTw07z-12" value="" style="edgeStyle=orthogonalEdgeStyle;rounded=0;orthogonalLoop=1;jettySize=auto;html=1;" edge="1" parent="WIyWlLk6GJQsqaUBKTNV-1" source="JYMYLlMyIVEoMuBTw07z-9" target="JYMYLlMyIVEoMuBTw07z-11">
          <mxGeometry relative="1" as="geometry" />
        </mxCell>
        <mxCell id="JYMYLlMyIVEoMuBTw07z-26" style="edgeStyle=orthogonalEdgeStyle;rounded=0;orthogonalLoop=1;jettySize=auto;html=1;entryX=0;entryY=0.5;entryDx=0;entryDy=0;" edge="1" parent="WIyWlLk6GJQsqaUBKTNV-1" source="JYMYLlMyIVEoMuBTw07z-9" target="JYMYLlMyIVEoMuBTw07z-24">
          <mxGeometry relative="1" as="geometry" />
        </mxCell>
        <mxCell id="JYMYLlMyIVEoMuBTw07z-9" value="IF character EQUALS vowel" style="rhombus;whiteSpace=wrap;html=1;" vertex="1" parent="WIyWlLk6GJQsqaUBKTNV-1">
          <mxGeometry x="50" y="680" width="180" height="130" as="geometry" />
        </mxCell>
        <mxCell id="JYMYLlMyIVEoMuBTw07z-14" value="" style="edgeStyle=orthogonalEdgeStyle;rounded=0;orthogonalLoop=1;jettySize=auto;html=1;" edge="1" parent="WIyWlLk6GJQsqaUBKTNV-1" source="JYMYLlMyIVEoMuBTw07z-11" target="JYMYLlMyIVEoMuBTw07z-13">
          <mxGeometry relative="1" as="geometry" />
        </mxCell>
        <mxCell id="JYMYLlMyIVEoMuBTw07z-11" value="result = result + character" style="whiteSpace=wrap;html=1;" vertex="1" parent="WIyWlLk6GJQsqaUBKTNV-1">
          <mxGeometry x="80" y="940" width="120" height="60" as="geometry" />
        </mxCell>
        <mxCell id="JYMYLlMyIVEoMuBTw07z-16" value="" style="edgeStyle=orthogonalEdgeStyle;rounded=0;orthogonalLoop=1;jettySize=auto;html=1;" edge="1" parent="WIyWlLk6GJQsqaUBKTNV-1" source="JYMYLlMyIVEoMuBTw07z-13" target="JYMYLlMyIVEoMuBTw07z-15">
          <mxGeometry relative="1" as="geometry" />
        </mxCell>
        <mxCell id="JYMYLlMyIVEoMuBTw07z-13" value="Output length &lt;br&gt;of result" style="shape=parallelogram;perimeter=parallelogramPerimeter;whiteSpace=wrap;html=1;fixedSize=1;" vertex="1" parent="WIyWlLk6GJQsqaUBKTNV-1">
          <mxGeometry x="260" y="940" width="140" height="60" as="geometry" />
        </mxCell>
        <mxCell id="JYMYLlMyIVEoMuBTw07z-15" value="End" style="ellipse;whiteSpace=wrap;html=1;" vertex="1" parent="WIyWlLk6GJQsqaUBKTNV-1">
          <mxGeometry x="460" y="930" width="120" height="80" as="geometry" />
        </mxCell>
        <mxCell id="JYMYLlMyIVEoMuBTw07z-18" value="False" style="text;html=1;align=center;verticalAlign=middle;resizable=0;points=[];autosize=1;strokeColor=none;fillColor=none;" vertex="1" parent="WIyWlLk6GJQsqaUBKTNV-1">
          <mxGeometry x="290" y="750" width="50" height="30" as="geometry" />
        </mxCell>
        <mxCell id="JYMYLlMyIVEoMuBTw07z-19" value="True" style="text;html=1;align=center;verticalAlign=middle;resizable=0;points=[];autosize=1;strokeColor=none;fillColor=none;" vertex="1" parent="WIyWlLk6GJQsqaUBKTNV-1">
          <mxGeometry x="140" y="860" width="50" height="30" as="geometry" />
        </mxCell>
        <mxCell id="JYMYLlMyIVEoMuBTw07z-23" value="" style="edgeStyle=orthogonalEdgeStyle;rounded=0;orthogonalLoop=1;jettySize=auto;html=1;" edge="1" parent="WIyWlLk6GJQsqaUBKTNV-1" source="JYMYLlMyIVEoMuBTw07z-20" target="JYMYLlMyIVEoMuBTw07z-22">
          <mxGeometry relative="1" as="geometry" />
        </mxCell>
        <mxCell id="JYMYLlMyIVEoMuBTw07z-20" value="FOR EACH &lt;br&gt;character IN &quot;makan&quot;" style="shape=hexagon;perimeter=hexagonPerimeter2;whiteSpace=wrap;html=1;fixedSize=1;" vertex="1" parent="WIyWlLk6GJQsqaUBKTNV-1">
          <mxGeometry x="47.5" y="390" width="185" height="90" as="geometry" />
        </mxCell>
        <mxCell id="JYMYLlMyIVEoMuBTw07z-22" value="FOR EACH vowel IN vocal" style="shape=hexagon;perimeter=hexagonPerimeter2;whiteSpace=wrap;html=1;fixedSize=1;" vertex="1" parent="WIyWlLk6GJQsqaUBKTNV-1">
          <mxGeometry x="47.5" y="540" width="185" height="90" as="geometry" />
        </mxCell>
        <mxCell id="JYMYLlMyIVEoMuBTw07z-27" style="edgeStyle=orthogonalEdgeStyle;rounded=0;orthogonalLoop=1;jettySize=auto;html=1;" edge="1" parent="WIyWlLk6GJQsqaUBKTNV-1" source="JYMYLlMyIVEoMuBTw07z-24" target="JYMYLlMyIVEoMuBTw07z-15">
          <mxGeometry relative="1" as="geometry" />
        </mxCell>
        <mxCell id="JYMYLlMyIVEoMuBTw07z-24" value="Output = 0" style="shape=parallelogram;perimeter=parallelogramPerimeter;whiteSpace=wrap;html=1;fixedSize=1;" vertex="1" parent="WIyWlLk6GJQsqaUBKTNV-1">
          <mxGeometry x="450" y="715" width="140" height="60" as="geometry" />
        </mxCell>
      </root>
    </mxGraphModel>
  </diagram>
</mxfile>
